<mxfile host="65bd71144e">
    <diagram id="dLbpwWId31D5CVljBKBY" name="第 1 页">
        <mxGraphModel dx="2037" dy="791" grid="1" gridSize="10" guides="1" tooltips="1" connect="1" arrows="1" fold="1" page="1" pageScale="1" pageWidth="827" pageHeight="1169" math="0" shadow="0">
            <root>
                <mxCell id="0"/>
                <mxCell id="1" parent="0"/>
                <mxCell id="31" value="moving" style="shape=umlFrame;whiteSpace=wrap;html=1;pointerEvents=0;recursiveResize=0;container=1;collapsible=0;width=160;" parent="1" vertex="1">
                    <mxGeometry x="160" y="165" width="530" height="420" as="geometry"/>
                </mxCell>
                <mxCell id="40" style="edgeStyle=none;html=1;" parent="31" source="34" target="37" edge="1">
                    <mxGeometry relative="1" as="geometry"/>
                </mxCell>
                <mxCell id="41" value="timetick [ if_err_xy]" style="edgeLabel;html=1;align=center;verticalAlign=middle;resizable=0;points=[];" parent="40" vertex="1" connectable="0">
                    <mxGeometry x="-0.3111" relative="1" as="geometry">
                        <mxPoint x="60" as="offset"/>
                    </mxGeometry>
                </mxCell>
                <mxCell id="34" value="yaw_control" style="shape=umlFrame;whiteSpace=wrap;html=1;pointerEvents=0;recursiveResize=0;container=1;collapsible=0;width=160;" parent="31" vertex="1">
                    <mxGeometry x="120" y="70" width="340" height="160" as="geometry"/>
                </mxCell>
                <mxCell id="38" value="entry / yaw_pid.clear();" style="text;html=1;align=center;verticalAlign=middle;resizable=0;points=[];autosize=1;strokeColor=none;fillColor=none;" parent="34" vertex="1">
                    <mxGeometry x="40" y="40" width="140" height="30" as="geometry"/>
                </mxCell>
                <mxCell id="39" value="timetick [if_err_yaw] / yaw_pid.calc(); send_cmd();" style="text;html=1;align=center;verticalAlign=middle;resizable=0;points=[];autosize=1;strokeColor=none;fillColor=none;" parent="34" vertex="1">
                    <mxGeometry x="10" y="70" width="290" height="30" as="geometry"/>
                </mxCell>
                <mxCell id="36" style="edgeStyle=none;html=1;entryX=-0.007;entryY=0.347;entryDx=0;entryDy=0;entryPerimeter=0;" parent="31" source="35" target="37" edge="1">
                    <mxGeometry relative="1" as="geometry">
                        <Array as="points">
                            <mxPoint x="120" y="352"/>
                        </Array>
                    </mxGeometry>
                </mxCell>
                <mxCell id="35" value="H" style="ellipse;html=1;" parent="31" vertex="1">
                    <mxGeometry x="30" y="330" width="30" height="30" as="geometry"/>
                </mxCell>
                <mxCell id="37" value="xy_control" style="shape=umlFrame;whiteSpace=wrap;html=1;pointerEvents=0;recursiveResize=0;container=1;collapsible=0;width=160;" parent="31" vertex="1">
                    <mxGeometry x="130" y="295" width="290" height="100" as="geometry"/>
                </mxCell>
                <mxCell id="44" value="entry / xy_pid.clear();" style="text;html=1;align=center;verticalAlign=middle;resizable=0;points=[];autosize=1;strokeColor=none;fillColor=none;" parent="37" vertex="1">
                    <mxGeometry x="35" y="28" width="140" height="30" as="geometry"/>
                </mxCell>
                <mxCell id="45" value="timetick [if_err_xy] / xy_pid.calc(); send_cmd();" style="text;html=1;align=center;verticalAlign=middle;resizable=0;points=[];autosize=1;strokeColor=none;fillColor=none;" parent="37" vertex="1">
                    <mxGeometry x="10" y="58" width="270" height="30" as="geometry"/>
                </mxCell>
                <mxCell id="42" style="edgeStyle=none;html=1;entryX=0.084;entryY=1.004;entryDx=0;entryDy=0;entryPerimeter=0;" parent="31" source="37" target="34" edge="1">
                    <mxGeometry relative="1" as="geometry"/>
                </mxCell>
                <mxCell id="43" value="timetick [ ! if_err_xy &amp;amp;&amp;amp; if_err_yaw ]" style="edgeLabel;html=1;align=center;verticalAlign=middle;resizable=0;points=[];" parent="42" vertex="1" connectable="0">
                    <mxGeometry x="0.1948" y="3" relative="1" as="geometry">
                        <mxPoint x="-43" y="11" as="offset"/>
                    </mxGeometry>
                </mxCell>
                <mxCell id="46" value="stop" style="shape=umlFrame;whiteSpace=wrap;html=1;pointerEvents=0;recursiveResize=0;container=1;collapsible=0;width=160;" parent="1" vertex="1">
                    <mxGeometry x="20" y="680" width="325" height="120" as="geometry"/>
                </mxCell>
                <mxCell id="53" value="timetick [if_stop_flag] / send_cmd();" style="text;html=1;align=center;verticalAlign=middle;resizable=0;points=[];autosize=1;strokeColor=none;fillColor=none;" parent="46" vertex="1">
                    <mxGeometry y="60" width="210" height="30" as="geometry"/>
                </mxCell>
                <mxCell id="72" value="timetick [(!if_get_current) || (! if_get_target) ] / send_cmd();" style="text;html=1;align=center;verticalAlign=middle;resizable=0;points=[];autosize=1;strokeColor=none;fillColor=none;" parent="46" vertex="1">
                    <mxGeometry x="-5" y="90" width="330" height="30" as="geometry"/>
                </mxCell>
                <mxCell id="47" value="free" style="shape=umlFrame;whiteSpace=wrap;html=1;pointerEvents=0;recursiveResize=0;container=1;collapsible=0;width=160;" parent="1" vertex="1">
                    <mxGeometry x="650" y="720" width="190" height="100" as="geometry"/>
                </mxCell>
                <mxCell id="61" value="timetick / send_cmd();" style="text;html=1;align=center;verticalAlign=middle;resizable=0;points=[];autosize=1;strokeColor=none;fillColor=none;" parent="47" vertex="1">
                    <mxGeometry y="50" width="140" height="30" as="geometry"/>
                </mxCell>
                <mxCell id="48" style="edgeStyle=none;html=1;entryX=0.382;entryY=0.007;entryDx=0;entryDy=0;entryPerimeter=0;" parent="1" source="31" target="46" edge="1">
                    <mxGeometry relative="1" as="geometry"/>
                </mxCell>
                <mxCell id="50" value="timetick [if_stop_flag]" style="edgeLabel;html=1;align=center;verticalAlign=middle;resizable=0;points=[];" parent="48" vertex="1" connectable="0">
                    <mxGeometry x="-0.1432" y="-1" relative="1" as="geometry">
                        <mxPoint x="-8" y="7" as="offset"/>
                    </mxGeometry>
                </mxCell>
                <mxCell id="49" style="edgeStyle=none;html=1;entryX=0.216;entryY=0.007;entryDx=0;entryDy=0;entryPerimeter=0;" parent="1" source="31" target="47" edge="1">
                    <mxGeometry relative="1" as="geometry"/>
                </mxCell>
                <mxCell id="51" value="timetick [ (! if_err_xy) &amp;amp;&amp;amp; (! if_err_yaw)]" style="edgeLabel;html=1;align=center;verticalAlign=middle;resizable=0;points=[];" parent="49" vertex="1" connectable="0">
                    <mxGeometry x="-0.013" y="1" relative="1" as="geometry">
                        <mxPoint as="offset"/>
                    </mxGeometry>
                </mxCell>
                <mxCell id="54" value="" style="ellipse;fillColor=strokeColor;html=1;" parent="1" vertex="1">
                    <mxGeometry x="-120" y="760" width="30" height="30" as="geometry"/>
                </mxCell>
                <mxCell id="55" style="edgeStyle=none;html=1;entryX=0.001;entryY=0.523;entryDx=0;entryDy=0;entryPerimeter=0;" parent="1" source="54" target="46" edge="1">
                    <mxGeometry relative="1" as="geometry"/>
                </mxCell>
                <mxCell id="56" style="edgeStyle=none;html=1;entryX=0.371;entryY=1.005;entryDx=0;entryDy=0;entryPerimeter=0;" parent="1" source="46" target="31" edge="1">
                    <mxGeometry relative="1" as="geometry"/>
                </mxCell>
                <mxCell id="58" value="timetick [ ! if_stop_flag &amp;amp;&amp;amp; (if_err_yaw || if_err_xy)]" style="edgeLabel;html=1;align=center;verticalAlign=middle;resizable=0;points=[];" parent="56" vertex="1" connectable="0">
                    <mxGeometry x="0.1982" relative="1" as="geometry">
                        <mxPoint x="40" y="32" as="offset"/>
                    </mxGeometry>
                </mxCell>
                <mxCell id="59" style="edgeStyle=none;html=1;entryX=0.972;entryY=1.004;entryDx=0;entryDy=0;entryPerimeter=0;" parent="1" source="47" target="31" edge="1">
                    <mxGeometry relative="1" as="geometry"/>
                </mxCell>
                <mxCell id="60" value="&lt;span style=&quot;color: rgb(0, 0, 0);&quot;&gt;timetick [ if_err_xy || if_err_yaw]&lt;/span&gt;" style="edgeLabel;html=1;align=center;verticalAlign=middle;resizable=0;points=[];" parent="59" vertex="1" connectable="0">
                    <mxGeometry x="-0.3998" y="-1" relative="1" as="geometry">
                        <mxPoint x="61" as="offset"/>
                    </mxGeometry>
                </mxCell>
                <mxCell id="62" value="" style="ellipse;fillColor=strokeColor;html=1;" parent="1" vertex="1">
                    <mxGeometry x="140" y="900" width="30" height="30" as="geometry"/>
                </mxCell>
                <mxCell id="66" style="edgeStyle=none;html=1;" parent="1" source="63" target="65" edge="1">
                    <mxGeometry relative="1" as="geometry"/>
                </mxCell>
                <mxCell id="67" value="terminate / send_cmd();" style="edgeLabel;html=1;align=center;verticalAlign=middle;resizable=0;points=[];" parent="66" vertex="1" connectable="0">
                    <mxGeometry x="-0.3946" y="1" relative="1" as="geometry">
                        <mxPoint x="26" y="11" as="offset"/>
                    </mxGeometry>
                </mxCell>
                <mxCell id="69" value="timetick [if_unhealthy] / log_out(); send_cmd();" style="edgeLabel;html=1;align=center;verticalAlign=middle;resizable=0;points=[];" parent="66" vertex="1" connectable="0">
                    <mxGeometry x="-0.3804" y="1" relative="1" as="geometry">
                        <mxPoint x="40" y="-9" as="offset"/>
                    </mxGeometry>
                </mxCell>
                <mxCell id="63" value="terminate_handle" style="shape=umlFrame;whiteSpace=wrap;html=1;pointerEvents=0;recursiveResize=0;container=1;collapsible=0;width=160;" parent="1" vertex="1">
                    <mxGeometry x="270" y="890" width="190" height="60" as="geometry"/>
                </mxCell>
                <mxCell id="64" style="edgeStyle=none;html=1;entryX=-0.008;entryY=0.421;entryDx=0;entryDy=0;entryPerimeter=0;" parent="1" source="62" target="63" edge="1">
                    <mxGeometry relative="1" as="geometry"/>
                </mxCell>
                <mxCell id="65" value="" style="ellipse;html=1;shape=endState;fillColor=strokeColor;" parent="1" vertex="1">
                    <mxGeometry x="720" y="905" width="30" height="30" as="geometry"/>
                </mxCell>
                <mxCell id="73" style="edgeStyle=none;html=1;entryX=0;entryY=0.161;entryDx=0;entryDy=0;entryPerimeter=0;" parent="1" source="46" target="47" edge="1">
                    <mxGeometry relative="1" as="geometry"/>
                </mxCell>
                <mxCell id="75" value="&lt;span style=&quot;color: rgb(0, 0, 0);&quot;&gt;timetick [ ! if_stop_flag &amp;amp;&amp;amp; ! if_err_yaw &amp;amp;&amp;amp; ! if_err_xy]&lt;/span&gt;" style="edgeLabel;html=1;align=center;verticalAlign=middle;resizable=0;points=[];" parent="73" vertex="1" connectable="0">
                    <mxGeometry x="0.186" y="1" relative="1" as="geometry">
                        <mxPoint x="-22" y="19" as="offset"/>
                    </mxGeometry>
                </mxCell>
                <mxCell id="76" style="edgeStyle=none;html=1;entryX=1.004;entryY=0.753;entryDx=0;entryDy=0;entryPerimeter=0;" parent="1" source="61" target="46" edge="1">
                    <mxGeometry relative="1" as="geometry"/>
                </mxCell>
                <mxCell id="77" value="timetick [if_stop_flag]" style="edgeLabel;html=1;align=center;verticalAlign=middle;resizable=0;points=[];" parent="76" vertex="1" connectable="0">
                    <mxGeometry x="0.495" relative="1" as="geometry">
                        <mxPoint x="67" y="12" as="offset"/>
                    </mxGeometry>
                </mxCell>
            </root>
        </mxGraphModel>
    </diagram>
</mxfile>